2014025_C5_02_grf
version=1
nRows=18
nColumns=19
inDegrees=no
endheader
time	ground_force_1_vx	ground_force_1_vy	ground_force_1_vz	ground_force_1_px	ground_force_1_py	ground_force_1_pz	ground_force_1_mx	ground_force_1_my	ground_force_1_mz	ground_force_2_vx	ground_force_2_vy	ground_force_2_vz	ground_force_2_px	ground_force_2_py	ground_force_2_pz	ground_force_2_mx	ground_force_2_my	ground_force_2_mz
      0.31200000	     -2.93650059	    406.86033666	     17.59120468	      0.18148773	     -0.00200000	     -0.34879302	      0.00000000	     -0.10434822	      0.00000000	      0.00000000	      0.00000000	      0.00000000	      0.00000000	      0.00000000	      0.00000000	      0.00000000	      0.00000000	      0.00000000
      0.31300000	     -2.28183536	    410.40796787	     17.43469685	      0.18153155	     -0.00200000	     -0.34868531	      0.00000000	     -0.10529882	      0.00000000	      0.00000000	      0.00000000	      0.00000000	      0.00000000	      0.00000000	      0.00000000	      0.00000000	      0.00000000	      0.00000000
      0.31400000	     -1.61343534	    414.04079646	     17.28340834	      0.18157276	     -0.00200000	     -0.34857843	      0.00000000	     -0.10660821	      0.00000000	      0.00000000	      0.00000000	      0.00000000	      0.00000000	      0.00000000	      0.00000000	      0.00000000	      0.00000000	      0.00000000
      0.31500000	     -0.92828626	    417.77901351	     17.13870754	      0.18161120	     -0.00200000	     -0.34847241	      0.00000000	     -0.10838035	     -0.00000000	      0.00000000	      0.00000000	      0.00000000	      0.00000000	      0.00000000	      0.00000000	      0.00000000	      0.00000000	      0.00000000
      0.31600000	     -0.23007359	    421.60063982	     16.99933037	      0.18164775	     -0.00200000	     -0.34836696	      0.00000000	     -0.11053428	      0.00000000	      0.00000000	      0.00000000	      0.00000000	      0.00000000	      0.00000000	      0.00000000	      0.00000000	      0.00000000	      0.00000000
      0.31700000	      0.48404932	    425.52551255	     16.86667129	      0.18168237	     -0.00200000	     -0.34826208	      0.00000000	     -0.11317844	     -0.00000000	      0.00000000	      0.00000000	      0.00000000	      0.00000000	      0.00000000	      0.00000000	      0.00000000	      0.00000000	      0.00000000
      0.31800000	      1.21056623	    429.53215539	     16.73943494	      0.18171574	     -0.00200000	     -0.34815756	      0.00000000	     -0.11622462	     -0.00000000	      0.00000000	      0.00000000	      0.00000000	      0.00000000	      0.00000000	      0.00000000	      0.00000000	      0.00000000	      0.00000000
      0.31900000	      1.95216402	    433.64014477	     16.61903923	      0.18174790	     -0.00200000	     -0.34805331	      0.00000000	     -0.11978359	     -0.00000000	      0.00000000	      0.00000000	      0.00000000	      0.00000000	      0.00000000	      0.00000000	      0.00000000	      0.00000000	      0.00000000
      0.32000000	      2.70550337	    437.82845140	     16.50417056	      0.18177934	     -0.00200000	     -0.34794920	      0.00000000	     -0.12376094	      0.00000000	      0.00000000	      0.00000000	      0.00000000	      0.00000000	      0.00000000	      0.00000000	      0.00000000	      0.00000000	      0.00000000
      0.32100000	      3.47312784	    442.11642817	     16.39627749	      0.18181022	     -0.00200000	     -0.34784509	      0.00000000	     -0.12827019	      0.00000000	      0.00000000	      0.00000000	      0.00000000	      0.00000000	      0.00000000	      0.00000000	      0.00000000	      0.00000000	      0.00000000
      0.32200000	      4.25187929	    446.48349285	     16.29401706	      0.18184085	     -0.00200000	     -0.34774090	      0.00000000	     -0.13321178	     -0.00000000	      0.00000000	      0.00000000	      0.00000000	      0.00000000	      0.00000000	      0.00000000	      0.00000000	      0.00000000	      0.00000000
      0.32300000	      5.04418183	    450.94862580	     16.19886328	      0.18187143	     -0.00200000	     -0.34763651	      0.00000000	     -0.13870179	      0.00000000	      0.00000000	      0.00000000	      0.00000000	      0.00000000	      0.00000000	      0.00000000	      0.00000000	      0.00000000	      0.00000000
      0.32400000	      5.84705500	    455.49165457	     16.10944904	      0.18190218	     -0.00200000	     -0.34753192	      0.00000000	     -0.14463626	      0.00000000	      0.00000000	      0.00000000	      0.00000000	      0.00000000	      0.00000000	      0.00000000	      0.00000000	      0.00000000	      0.00000000
      0.32500000	      6.66283036	    460.13126150	     16.02727510	      0.18193337	     -0.00200000	     -0.34742708	      0.00000000	     -0.15113430	      0.00000000	      0.00000000	      0.00000000	      0.00000000	      0.00000000	      0.00000000	      0.00000000	      0.00000000	      0.00000000	      0.00000000
      0.32600000	      7.48870312	    464.84757215	     15.95094241	      0.18196505	     -0.00200000	     -0.34732205	      0.00000000	     -0.15809004	      0.00000000	      0.00000000	      0.00000000	      0.00000000	      0.00000000	      0.00000000	      0.00000000	      0.00000000	      0.00000000	      0.00000000
      0.32700000	      8.32695176	    469.65910122	     15.88196540	      0.18199755	     -0.00200000	     -0.34721677	      0.00000000	     -0.16562501	      0.00000000	      0.00000000	      0.00000000	      0.00000000	      0.00000000	      0.00000000	      0.00000000	      0.00000000	      0.00000000	      0.00000000
      0.32800000	      9.17492830	    474.54629093	     15.81891179	      0.18203084	     -0.00200000	     -0.34711130	      0.00000000	     -0.17362755	      0.00000000	      0.00000000	      0.00000000	      0.00000000	      0.00000000	      0.00000000	      0.00000000	      0.00000000	      0.00000000	      0.00000000
      0.32900000	     10.03488747	    479.52726483	     15.76330839	      0.18206525	     -0.00200000	     -0.34700564	      0.00000000	     -0.18221721	      0.00000000	      0.00000000	      0.00000000	      0.00000000	      0.00000000	      0.00000000	      0.00000000	      0.00000000	      0.00000000	      0.00000000
